PathFileType	4	(X/Y/Z)	/Users/itak/Documents/Research/Walk-IL/dataset/trc/00546_00009.trc
DataRate	CameraRate	NumFrames	NumMarkers	Units	OrigDataRate	OrigDataStartFrame	OrigNumFrames
100.000000	100.000000	4	53	mm	100.000000	63	508
Frame#	Time	RPSI			LPSI			L3			STRN			T10			C7			CLAV			RBAK			LBAK			LSHO			LUPA			LAEL			LAOL			LWTS			LWPS			LFRA			LIFD			LHPS			LHTS			RSHO			RUPA			RAEL			RAOL			RWTS			RWPS			RFRA			RIFD			RHTS			RHPS			RBHD			LFHD			RFHD			LBHD			LHIP			RHIP			RASI			LASI			LKNE			LTHI			LANK			LTIP			LTOE			LMT1			LMT5			LHEE			RKNE			RTHI			RANK			RTIP			RTOE			RMT1			RMT5			RHEE			
		X1	Y1	Z1	X2	Y2	Z2	X3	Y3	Z3	X4	Y4	Z4	X5	Y5	Z5	X6	Y6	Z6	X7	Y7	Z7	X8	Y8	Z8	X9	Y9	Z9	X10	Y10	Z10	X11	Y11	Z11	X12	Y12	Z12	X13	Y13	Z13	X14	Y14	Z14	X15	Y15	Z15	X16	Y16	Z16	X17	Y17	Z17	X18	Y18	Z18	X19	Y19	Z19	X20	Y20	Z20	X21	Y21	Z21	X22	Y22	Z22	X23	Y23	Z23	X24	Y24	Z24	X25	Y25	Z25	X26	Y26	Z26	X27	Y27	Z27	X28	Y28	Z28	X29	Y29	Z29	X30	Y30	Z30	X31	Y31	Z31	X32	Y32	Z32	X33	Y33	Z33	X34	Y34	Z34	X35	Y35	Z35	X36	Y36	Z36	X37	Y37	Z37	X38	Y38	Z38	X39	Y39	Z39	X40	Y40	Z40	X41	Y41	Z41	X42	Y42	Z42	X43	Y43	Z43	X44	Y44	Z44	X45	Y45	Z45	X46	Y46	Z46	X47	Y47	Z47	X48	Y48	Z48	X49	Y49	Z49	X50	Y50	Z50	X51	Y51	Z51	X52	Y52	Z52	X53	Y53	Z53	

64	0.63	-665.4195556640625	1019.761779785156	399.1886901855469	-659.9359130859375	1022.700744628906	265.655029296875	-657.6563720703125	1108.767944335938	328.0283203125	-432.6571044921875	1296.538208007812	324.2459411621094	-670.8125	1234.154174804688	325.0790710449219	-626.7202758789062	1508.92724609375	335.3405151367188	-453.7956237792969	1407.265014648438	325.043701171875	-698.2837524414062	1382.598388671875	421.0686950683594	-661.3472290039062	1454.60986328125	245.2866821289062	-564.1524047851562	1478.657348632812	163.1113128662109	-573.3865356445312	1352.3203125	82.8902587890625	-548.0830078125	1129.59912109375	61.46440887451172	-634.7344970703125	1120.398803710938	113.975227355957	-452.1201171875	887.1375732421875	105.8592300415039	-497.9115600585938	863.9708862304688	34.72674560546875	-524.7918701171875	1043.848022460938	54.11748504638672	-453.9044799804688	716.9559326171875	102.1595306396484	-487.1070861816406	804.7862548828125	42.27882766723633	-432.5761413574219	811.330078125	84.29373931884766	-568.3316650390625	1471.179077148438	489.8889465332031	-586.910400390625	1407.660400390625	558.4794921875	-591.065673828125	1118.694946289062	605.2198486328125	-646.2413940429688	1100.90234375	579.7474975585938	-464.6164855957031	893.6817626953125	554.89990234375	-504.0908203125	874.7176513671875	624.2921752929688	-578.5182495117188	1062.2490234375	612.3995971679688	-454.6650695800781	721.1348876953125	559.1670532226562	-436.0216064453125	803.3975830078125	567.73046875	-488.1351013183594	800.2742919921875	621.2495727539062	-567.5874633789062	1686.989868164062	396.0298156738281	-398.8789978027344	1717.96826171875	279.1453552246094	-431.501708984375	1712.334594726562	419.9224243164062	-523.1617431640625	1692.718872070312	236.0675354003906	-532.0101928710938	940.3226928710938	137.9339294433594	-547.3698120117188	943.3895263671875	523.8175659179688	-457.6760864257812	971.3505249023438	467.1384582519531	-453.8227233886719	962.3975830078125	190.5202789306641	-531.2769775390625	494.5484924316406	200.7044677734375	-520.1305541992188	658.8391723632812	161.3076934814453	-620.8301391601562	33.98567962646484	213.7169036865234	-602.6807861328125	252.0205230712891	199.5718536376953	-409.0787963867188	39.67837524414062	264.7898254394531	-480.5556640625	41.58808898925781	303.2608337402344	-497.9667663574219	35.8404655456543	196.5729217529297	-688.718994140625	36.87958145141602	271.2758483886719	-542.6519775390625	497.8147277832031	476.4603881835938	-513.8917236328125	787.0242309570312	520.9296264648438	-631.1613159179688	36.35108947753906	458.8671875	-548.3760375976562	356.4043884277344	463.5577087402344	-410.7325744628906	41.9229736328125	424.883544921875	-472.4599304199219	40.94673919677734	381.8413696289062	-498.1022338867188	37.37585830688477	484.1378479003906	-684.7650756835938	30.57759475708008	401.7066955566406	
65	0.64	-665.3786010742188	1019.798217773438	398.95068359375	-659.8413696289062	1022.734069824219	265.3917846679688	-657.44140625	1108.814819335938	327.7000122070312	-432.4794616699219	1296.471313476562	324.0298461914062	-670.654052734375	1234.192504882812	324.8380737304688	-626.408935546875	1508.95556640625	335.0025024414062	-453.5191040039062	1407.1982421875	324.7288513183594	-697.9500732421875	1382.680786132812	420.7383422851562	-661.077880859375	1454.645874023438	245.0045318603516	-563.9046020507812	1478.636352539062	162.7873687744141	-573.05859375	1352.216430664062	82.63865661621094	-547.78125	1129.508056640625	61.30471420288086	-634.4104614257812	1120.319946289062	113.6982650756836	-451.6305541992188	887.166748046875	105.7153625488281	-497.4394836425781	863.912841796875	34.63908767700195	-524.51708984375	1043.814086914062	53.95170974731445	-453.3469848632812	716.9558715820312	102.1733322143555	-486.740966796875	804.7409057617188	42.2587776184082	-432.1592712402344	811.335205078125	84.29236602783203	-567.9924926757812	1471.19091796875	489.5766906738281	-586.6138305664062	1407.697021484375	558.1630859375	-590.7884521484375	1118.773559570312	604.9921875	-645.919921875	1101.013305664062	579.4857177734375	-464.4056396484375	893.7911376953125	554.6179809570312	-503.8170776367188	874.7833862304688	624.0286865234375	-578.2235107421875	1062.258544921875	612.0879516601562	-454.3357238769531	721.2088012695312	558.874267578125	-435.7167663574219	803.4918823242188	567.462646484375	-487.7800903320312	800.3243408203125	620.87060546875	-567.1360473632812	1687.029907226562	395.6812438964844	-398.5186157226562	1717.88525390625	278.6590270996094	-431.010009765625	1712.267211914062	419.50341796875	-522.8309936523438	1692.6513671875	235.6713409423828	-531.814208984375	940.2793579101562	137.6958923339844	-547.2860717773438	943.3844604492188	523.6369018554688	-457.7070617675781	971.3074951171875	466.9444274902344	-453.6640625	962.37841796875	190.2354278564453	-531.1939697265625	494.5375671386719	200.5779724121094	-520.0729370117188	658.8624267578125	161.0975646972656	-620.8333129882812	33.98146057128906	213.7048797607422	-602.6425170898438	251.9828643798828	199.5287322998047	-409.0686645507812	39.67763900756836	264.7841186523438	-480.5549011230469	41.59014511108398	303.2594909667969	-497.9742736816406	35.83419799804688	196.5748596191406	-688.7074584960938	36.89574432373047	271.2514343261719	-542.61669921875	497.8158264160156	476.3800964355469	-513.8643798828125	787.0608520507812	520.7423706054688	-631.1632690429688	36.32987594604492	458.9228515625	-548.378662109375	356.4034118652344	463.5271911621094	-410.7447814941406	41.92655944824219	424.8863830566406	-472.4949645996094	40.95504760742188	381.8858337402344	-498.1079406738281	37.36758041381836	484.1502380371094	-684.7694702148438	30.56045532226562	401.7282104492188	
66	0.65	-665.3121337890625	1019.828857421875	398.6731262207031	-659.7442016601562	1022.764343261719	265.1128540039062	-657.2061157226562	1108.865234375	327.3430480957031	-432.2868347167969	1296.402465820312	323.7741394042969	-670.468505859375	1234.227294921875	324.5615844726562	-626.0834350585938	1508.983520507812	334.6506958007812	-453.2354736328125	1407.135986328125	324.3926696777344	-697.6090087890625	1382.761352539062	420.4054870605469	-660.7926635742188	1454.68310546875	244.7033996582031	-563.6472778320312	1478.625854492188	162.4282531738281	-572.7438354492188	1352.116577148438	82.38218688964844	-547.499755859375	1129.427368164062	61.14274597167969	-634.06298828125	1120.233764648438	113.3877792358398	-451.1293640136719	887.1929931640625	105.5702667236328	-496.9843139648438	863.8609008789062	34.56551361083984	-524.2363891601562	1043.776733398438	53.78842163085938	-452.6756896972656	716.9805908203125	102.1876373291016	-486.3718872070312	804.68994140625	42.25819396972656	-431.6890563964844	811.3473510742188	84.32198333740234	-567.6240234375	1471.20458984375	489.2545166015625	-586.3076171875	1407.732788085938	557.8261108398438	-590.536865234375	1118.873901367188	604.7556762695312	-645.6392822265625	1101.13916015625	579.251953125	-464.1828002929688	893.9193115234375	554.3040771484375	-503.5624694824219	874.8496704101562	623.7764282226562	-577.9096069335938	1062.25732421875	611.733154296875	-454.0278015136719	721.2760620117188	558.5868530273438	-435.4108581542969	803.5787963867188	567.1907958984375	-487.4374694824219	800.3701171875	620.4866943359375	-566.6866455078125	1687.075561523438	395.3001708984375	-398.1477966308594	1717.806640625	278.154296875	-430.5108337402344	1712.19580078125	419.0820617675781	-522.4880981445312	1692.578491210938	235.2595367431641	-531.62890625	940.2752075195312	137.4197692871094	-547.1727905273438	943.3731079101562	523.4090576171875	-457.7250671386719	971.2581787109375	466.7269897460938	-453.4979553222656	962.3585815429688	189.9043884277344	-531.1392822265625	494.5137023925781	200.4587707519531	-520.0414428710938	658.8878784179688	160.8677368164062	-620.83935546875	33.97350311279297	213.6835327148438	-602.6019897460938	251.9467010498047	199.4811553955078	-409.0587158203125	39.67665863037109	264.77734375	-480.5528259277344	41.59373474121094	303.2572326660156	-497.9754943847656	35.83161544799805	196.5713806152344	-688.69873046875	36.90826797485352	271.23095703125	-542.5928344726562	497.8195495605469	476.297607421875	-513.8277587890625	787.0923461914062	520.5440673828125	-631.1661987304688	36.29804992675781	458.9680480957031	-548.3876953125	356.4016723632812	463.495361328125	-410.75732421875	41.93051528930664	424.8908081054688	-472.5396118164062	40.96217727661133	381.9432983398438	-498.1131286621094	37.3598518371582	484.1633605957031	-684.7736206054688	30.5422306060791	401.7501220703125	
67	0.66	-665.215576171875	1019.855773925781	398.3544616699219	-659.6404418945312	1022.79248046875	264.8118896484375	-656.9633178710938	1108.919555664062	326.9682006835938	-432.0652465820312	1296.332641601562	323.4638977050781	-670.25830078125	1234.259887695312	324.2492980957031	-625.7444458007812	1509.011474609375	334.2846984863281	-452.9443664550781	1407.079467773438	324.033935546875	-697.2682495117188	1382.83740234375	420.0759582519531	-660.4920654296875	1454.720581054688	244.3825073242188	-563.3793334960938	1478.62451171875	162.0339965820312	-572.4359741210938	1352.02734375	82.10845184326172	-547.2313232421875	1129.362426757812	60.96540451049805	-633.7070922851562	1120.148193359375	113.0541610717773	-450.6391906738281	887.2127685546875	105.4385986328125	-496.5557556152344	863.8135986328125	34.50822830200195	-523.9476928710938	1043.735229492188	53.62298583984375	-451.9208068847656	717.0301513671875	102.2050857543945	-485.9953918457031	804.631103515625	42.27887344360352	-431.177978515625	811.3677978515625	84.37090301513672	-567.2376098632812	1471.2236328125	488.9201354980469	-585.9886474609375	1407.768432617188	557.4697875976562	-590.3143920898438	1118.992431640625	604.5045776367188	-645.3994750976562	1101.275634765625	579.0444946289062	-463.9505920410156	894.0531616210938	553.9710693359375	-503.3182067871094	874.9161987304688	623.5250244140625	-577.5914916992188	1062.251098632812	611.361083984375	-453.7510681152344	721.3375854492188	558.3104858398438	-435.1125793457031	803.6542358398438	566.9139404296875	-487.1191711425781	800.4116821289062	620.1136474609375	-566.2391357421875	1687.124877929688	394.8875732421875	-397.7611694335938	1717.729125976562	277.634033203125	-430.0061340332031	1712.125366210938	418.6509094238281	-522.1312866210938	1692.502807617188	234.8336791992188	-531.4407348632812	940.30029296875	137.1153717041016	-547.031982421875	943.3588256835938	523.1307373046875	-457.7206726074219	971.2019653320312	466.4786071777344	-453.3272399902344	962.3372802734375	189.5347442626953	-531.1092529296875	494.4795532226562	200.3444976806641	-520.0474243164062	658.912841796875	160.6236724853516	-620.8472900390625	33.9632453918457	213.6563110351562	-602.5572509765625	251.9132232666016	199.4271087646484	-409.0509948730469	39.67531967163086	264.7711486816406	-480.5498657226562	41.59949111938477	303.2545471191406	-497.9683227539062	35.8337287902832	196.5623168945312	-688.69287109375	36.91585922241211	271.216064453125	-542.5810546875	497.8255004882812	476.2102661132812	-513.7900390625	787.1168823242188	520.330322265625	-631.1703491210938	36.25238037109375	458.9994201660156	-548.402099609375	356.39892578125	463.4605407714844	-410.7702026367188	41.93487167358398	424.8963928222656	-472.5936279296875	40.96816635131836	382.0123596191406	-498.1177673339844	37.35281372070312	484.1768188476562	-684.7789916992188	30.52301406860352	401.7730407714844	
